<?xml version="1.0" encoding="UTF-8" standalone="no"?>
<!-- Generator: https://ezgif.com/png-to-svg -->

<svg
   version="1.1"
   width="705"
   height="751"
   id="svg10"
   sodipodi:docname="yield_logo.svg"
   xmlns:inkscape="http://www.inkscape.org/namespaces/inkscape"
   xmlns:sodipodi="http://sodipodi.sourceforge.net/DTD/sodipodi-0.dtd"
   xmlns="http://www.w3.org/2000/svg"
   xmlns:svg="http://www.w3.org/2000/svg">
  <defs
     id="defs10" />
  <sodipodi:namedview
     id="namedview10"
     pagecolor="#505050"
     bordercolor="#ffffff"
     borderopacity="1"
     inkscape:showpageshadow="0"
     inkscape:pageopacity="0"
     inkscape:pagecheckerboard="1"
     inkscape:deskcolor="#505050">
    <inkscape:page
       x="0"
       y="0"
       width="705"
       height="751"
       id="page2"
       margin="0"
       bleed="0" />
  </sodipodi:namedview>
  <path
     d="m 351,0 c 2.8,0.3 3.9,0.9 5.9,2.92 2.91,4.27 5.29,8.74 7.66,13.33 0.53,1.01 1.05,2.03 1.59,3.07 9.93,19.43 17.94,39.56 25.49,60 1.32,3.57 2.66,7.12 4,10.68 25.4,67.52 50.22,143.06 43.6,216.07 -0.28,3.48 -0.46,6.94 -0.55,10.43 -0.04,1.12 -0.08,2.25 -0.12,3.41 0.53,3.78 1.79,5.38 4.43,8.09 3.82,1.91 7.85,1.69 12,1 3.41,-1.83 6.1,-4.46 9,-7 2.66,-2.12 5.36,-4.19 8.06,-6.25 0.74,-0.56 1.48,-1.13 2.24,-1.71 22.19,-16.87 46.19,-30.83 70.7,-44.04 0.59,-0.32 1.18,-0.64 1.79,-0.97 79.49,-42.85 79.49,-42.85 107.21,-40.03 2,2 2,2 2.27,3.86 -0.04,5.58 -0.82,10.52 -2.33,15.89 -0.34,1.23 -0.34,1.23 -0.69,2.48 -9.78,34.83 -24.68,68.63 -41.95,100.37 -1.39,2.57 -2.76,5.14 -4.13,7.72 -17.42,32.58 -39.26,72.02 -69.23,94.93 -3.8,3.1 -5.43,6.9 -5.94,11.75 0.61,3.47 2.06,6.04 4.55,8.58 3.68,2.13 7.48,2.55 11.64,3.23 48.78,8.73 97.94,25.98 141.81,49.19 1.08,0.55 2.15,1.11 3.26,1.68 8.98,4.72 8.98,4.72 11.74,8.32 -0.04,2.9 -0.37,4.35 -2.4,6.45 -2.51,1.57 -5.03,3.08 -7.6,4.55 -0.6,0.35 -1.2,0.69 -1.82,1.05 -13.71,7.83 -28.21,13.74 -42.84,19.6 -2.84,1.15 -5.66,2.31 -8.48,3.5 C 609.44,585.7 574.01,597.07 539,601 c -1.14,0.13 -2.27,0.26 -3.44,0.39 -1.97,0.19 -3.94,0.34 -5.92,0.46 -2.66,0.12 -2.66,0.12 -5.38,0.52 -2.68,0.26 -4.64,0.26 -7.26,-0.37 -1.45,-1.51 -1.45,-1.51 -2.74,-3.61 -0.51,-0.82 -1.02,-1.65 -1.54,-2.49 -0.57,-0.96 -1.14,-1.91 -1.72,-2.9 -0.65,-1.09 -1.31,-2.17 -1.98,-3.29 -1.89,-3.14 -3.76,-6.3 -5.62,-9.46 -2.1,-3.57 -4.21,-7.13 -6.32,-10.69 -0.43,-0.72 -0.85,-1.45 -1.29,-2.19 -4.1,-6.9 -8.24,-13.77 -12.41,-20.62 -0.52,-0.85 -0.52,-0.85 -1.05,-1.73 -1.75,-2.86 -3.5,-5.73 -5.24,-8.59 -1.73,-2.84 -3.46,-5.68 -5.18,-8.52 -1.04,-1.7 -2.08,-3.4 -3.12,-5.1 -1.41,-2.33 -2.8,-4.66 -4.18,-7.01 -3.52,-5.93 -7.08,-11.53 -11.34,-16.97 -16.5,-22.13 -15.49,-44.14 -14.51,-70.86 0.22,-6.65 0.3,-13.3 0.41,-19.96 0.17,-10.01 0.52,-20 0.83,-30.01 -13.86,0 -27.72,0 -42,0 0.33,8.58 0.66,17.16 1,26 -4.27,-1.42 -5.15,-4.52 -7.12,-8.31 -4.59,-8.54 -9.52,-16.85 -14.57,-25.13 -0.54,-0.88 -0.54,-0.88 -1.09,-1.79 -2.39,-3.93 -4.8,-7.85 -7.22,-11.77 -0.65,-1.05 -1.3,-2.1 -1.97,-3.19 -0.62,-0.98 -1.23,-1.96 -1.86,-2.97 -0.54,-0.86 -1.08,-1.73 -1.64,-2.62 -2.61,-3.8 -2.61,-3.8 -6.58,-5.84 -0.75,-0.08 -1.49,-0.17 -2.26,-0.26 -0.74,-0.1 -1.48,-0.2 -2.24,-0.3 -3.68,0.27 -5.37,1.04 -8.45,3.18 -2.64,3.42 -4.8,7.09 -7,10.81 -1.33,2.19 -2.66,4.38 -3.99,6.57 -0.67,1.1 -1.34,2.21 -2.02,3.35 -2.99,4.91 -6.08,9.75 -9.18,14.58 -1.16,1.82 -2.32,3.64 -3.48,5.46 -0.56,0.88 -1.12,1.75 -1.69,2.65 -2.56,4.02 -5.1,8.05 -7.64,12.08 -4.32,6.84 -8.65,13.68 -13,20.5 -6.36,9.98 -12.69,19.99 -19,30 -6.9,10.95 -13.83,21.88 -20.78,32.8 -5.27,8.28 -10.52,16.57 -15.75,24.87 -2.49,3.95 -4.98,7.89 -7.47,11.83 -1,1.58 -2,3.17 -3,4.75 -2,3.17 -4,6.33 -6,9.5 -0.49,0.78 -0.99,1.57 -1.5,2.37 -1,1.59 -2,3.18 -3,4.76 -2.48,3.92 -4.96,7.84 -7.43,11.76 -14.58,23.12 -14.58,23.12 -21.39,33.7 -1.19,1.89 -2.35,3.8 -3.48,5.73 -0.59,1 -1.19,1.99 -1.81,3.02 -0.53,0.92 -1.06,1.83 -1.61,2.78 -1.78,2.13 -1.78,2.13 -4.22,2.96 -2.43,0.16 -4.57,0.11 -6.98,-0.21 -0.85,-0.12 -1.7,-0.23 -2.57,-0.34 -1.37,-0.2 -1.37,-0.2 -2.76,-0.4 -0.96,-0.14 -1.93,-0.28 -2.92,-0.42 C 112.61,592.8 60.99,574.09 14.56,550.25 13.68,549.8 12.8,549.35 11.89,548.89 7.16,546.41 3.53,544.03 0,540 c 1.97,-6.57 7.1,-8.7 12.76,-11.8 44.64,-23.89 95.87,-42.57 145.93,-50.34 6.06,-1.03 9.58,-1.83 13.31,-6.86 1.6,-3.2 1.35,-6.52 1,-10 -1.74,-4.46 -5.13,-6.97 -8.7,-10 -7.96,-6.93 -14.79,-14.71 -21.3,-23 -0.76,-0.94 -1.51,-1.88 -2.29,-2.85 C 106,381.27 44.91,291.14 49.29,233.12 c 0.24,-1.03 0.47,-2.06 0.71,-3.12 6.23,-3.11 14.3,-0.45 20.56,1.44 0.9,0.26 1.81,0.53 2.74,0.81 40.57,12.3 79.55,31.76 115.7,53.75 1.68,1.01 3.36,2.02 5.05,3.03 18.55,11.18 36.45,23.41 53.02,37.4 3.7,3.01 6.8,2.96 11.45,2.93 2.79,-0.2 2.79,-0.2 5.54,-2.74 4.54,-6.14 3.1,-13.17 2.45,-20.5 -0.6,-7.58 -0.75,-15.14 -0.76,-22.74 0,-0.72 0,-1.43 0,-2.17 0.02,-14.22 1.16,-28.14 3.25,-42.21 0.17,-1.14 0.33,-2.28 0.5,-3.45 C 280.48,162.46 304.63,58.35 351,0 Z"
     fill="#FCFCFC"
     id="path1"
     style="fill:#3366cc;fill-opacity:1" />
  <path
     d="m 531.06505,631.89079 c 1.36,0.01 1.36,0.01 2.76,0.02 1.02,0.01 2.05,0.02 3.11,0.03 1.69,0.02 1.69,0.02 3.4,0.04 1.16,0.01 2.31,0.03 3.49,0.04 2.45,0.04 4.9,0.07 7.35,0.11 3.72,0.06 7.43,0.08 11.16,0.11 2.37,0.04 4.75,0.08 7.13,0.11 1.66,0.01 1.66,0.01 3.35,0.02 9.58,0.21 17.55,2.69 25.18,8.63 0.55,0.41 1.09,0.82 1.64,1.25 4.49,3.87 7.04,8.46 9.68,13.69 0.34,0.66 0.67,1.33 1.02,2.02 8.25,17.11 7.75,40.59 2.63,58.7 -4.17,11.46 -10.46,21.63 -21.4,27.69 -5.35,2.45 -9.97,3.78 -15.88,3.76 -1.07,0 -2.13,0 -3.22,0 -1.71,-0.01 -1.71,-0.01 -3.45,-0.01 -1.17,0 -2.34,-0.01 -3.55,-0.01 -3.74,0 -7.48,-0.02 -11.22,-0.03 -2.53,0 -5.07,-0.01 -7.6,-0.01 -6.22,-0.01 -12.43,-0.03 -18.65,-0.05 -0.02,-14.98 -0.04,-29.95 -0.05,-44.93 0,-6.95 -0.01,-13.91 -0.02,-20.86 -0.01,-6.71 -0.02,-13.41 -0.02,-20.11 0,-2.57 -0.01,-5.13 -0.01,-7.7 -0.01,-3.58 -0.01,-7.15 -0.01,-10.73 0,-1.07 -0.01,-2.14 -0.01,-3.25 0,-0.97 0,-1.94 0,-2.93 0,-0.85 0,-1.7 0,-2.57 0.18,-2.7 0.49,-2.89 3.19,-3.03 z m 27.93,29.11 c -0.09,1.83 -0.12,3.67 -0.12,5.51 -0.01,1.18 -0.01,2.36 -0.01,3.57 0,1.28 0,2.57 0,3.89 0,1.3 0,2.61 0,3.95 0,2.77 0,5.54 0,8.31 0.01,3.55 0.01,7.11 0,10.66 0,3.38 0,6.76 0,10.14 0,1.28 0,2.56 0,3.89 0,1.17 0,2.35 0.01,3.57 0,1.04 0,2.08 0,3.16 -0.14,2.31 -0.14,2.31 1.12,3.35 2.08,0.15 4.17,0.22 6.25,0.25 1.71,0.04 1.71,0.04 3.46,0.08 4.65,-0.47 7.17,-2.2 10.42,-5.46 5.15,-7.89 5.37,-16.03 5.31,-25.25 0.02,-1.15 0.04,-2.31 0.06,-3.5 0,-8.52 -0.92,-17.75 -7.06,-24.25 -3.98,-3.06 -7.17,-3.01 -12.06,-3 -1.75,0 -1.75,0 -3.54,0 -2.74,-0.19 -2.74,-0.19 -3.84,1.13 z"
     fill="#F7F7F7"
     id="path2"
     style="fill:#3366cc;fill-opacity:1"
     inkscape:export-filename="path23.svg"
     inkscape:export-xdpi="96"
     inkscape:export-ydpi="96" />
  <path
     d="m 297.79883,633.87061 c 0.71,0 1.42,0 2.15,-0.01 2.36,0 4.72,0 7.08,0.01 1.64,0 3.27,-0.01 4.9,-0.01 3.43,0 6.85,0 10.28,0.01 4.4,0 8.8,0 13.21,0 3.37,-0.01 6.74,-0.01 10.12,0 1.62,0 3.24,0 4.87,-0.01 2.26,0 4.53,0 6.79,0.01 1.94,0 1.94,0 3.92,0 2.88,0.13 2.88,0.13 3.88,1.13 0.09,2 0.11,4 0.1,6 0,1.1 -0.01,2.19 -0.01,3.32 -0.01,1.4 -0.02,2.8 -0.03,4.24 -0.02,4.44 -0.04,8.87 -0.06,13.44 -14.19,0.33 -28.38,0.66 -43,1 0,4.29 0,8.58 0,13 10.23,0.33 20.46,0.66 31,1 0,8.91 0,17.82 0,27 -4.02,0.8 -7.14,1.12 -11.17,1.1 -1.74,-0.01 -1.74,-0.01 -3.51,-0.01 -1.2,-0.01 -2.4,-0.02 -3.63,-0.03 -1.22,0 -2.44,-0.01 -3.69,-0.01 -3,-0.01 -6,-0.03 -9,-0.05 0,5.61 0,11.22 0,17 14.19,0.33 28.38,0.66 43,1 0,8.91 0,17.82 0,27 -24.75,0 -49.5,0 -75,0 -0.04,-28.7 -0.04,-28.7 -0.05,-42.83 0,-7.65 -0.01,-15.31 -0.02,-22.96 -0.02,-6.71 -0.02,-13.41 -0.02,-20.11 -0.01,-2.57 -0.01,-5.13 -0.01,-7.7 -0.01,-3.58 -0.01,-7.15 -0.01,-10.73 -0.01,-1.07 -0.01,-2.14 -0.01,-3.25 0,-0.97 0,-1.94 0,-2.93 0,-0.85 0,-1.7 0,-2.57 0.28,-4.43 4.34,-3.05 7.92,-3.05 z"
     fill="#F7F7F7"
     id="path3"
     style="fill:#3366cc;fill-opacity:1" />
  <path
     d="m 88,632 c 4.09,-0.02 8.19,-0.04 12.28,-0.05 1.39,-0.01 2.79,-0.02 4.18,-0.03 2,-0.01 4,-0.01 6,-0.02 1.21,0 2.41,-0.01 3.65,-0.01 C 117,632 117,632 119,633 c 1.03,2.55 1.95,5.08 2.82,7.68 0.26,0.77 0.53,1.55 0.8,2.34 0.56,1.63 1.11,3.26 1.66,4.9 0.84,2.51 1.7,5.01 2.55,7.51 0.54,1.59 1.08,3.17 1.62,4.75 0.38,1.13 0.38,1.13 0.77,2.28 1.78,5.31 1.78,5.31 1.78,7.54 0.99,0 1.98,0 3,0 0.17,-0.72 0.34,-1.44 0.51,-2.18 1.84,-7.61 4.06,-15.02 6.55,-22.44 0.35,-1.08 0.71,-2.15 1.07,-3.26 0.34,-1.02 0.68,-2.04 1.03,-3.1 0.31,-0.92 0.61,-1.83 0.93,-2.78 C 145,634 145,634 147,632 c 2.98,-0.23 2.98,-0.23 6.76,-0.2 0.99,0.01 0.99,0.01 2.01,0.01 2.12,0.01 4.24,0.04 6.35,0.07 1.44,0.01 2.88,0.01 4.31,0.02 3.53,0.02 7.05,0.06 10.57,0.1 -0.64,3.93 -1.84,7.25 -3.45,10.89 -0.51,1.17 -1.02,2.33 -1.55,3.53 -0.28,0.62 -0.55,1.24 -0.83,1.88 -0.88,2 -1.73,4 -2.59,6 -2.67,6.25 -5.38,12.43 -8.54,18.45 -12.86,24.62 -12.84,47.83 -12.04,75.25 -10.23,0 -20.46,0 -31,0 0.08,-3.03 0.16,-6.07 0.24,-9.19 0.38,-24.33 -1.12,-43.59 -12.43,-65.23 -2.89,-5.6 -5.24,-11.46 -7.66,-17.28 -1.21,-2.9 -2.45,-5.79 -3.69,-8.68 -0.61,-1.42 -0.61,-1.42 -1.22,-2.86 -0.89,-1.99 -1.87,-3.94 -2.89,-5.86 C 88,636 88,636 88,632 Z"
     fill="#F7F7F7"
     id="path4"
     style="fill:#3366cc;fill-opacity:1" />
  <path
     d="m 420.625,631.86719 c 0.66,0 1.32,0 2.01,0 1.4,0 2.8,0 4.2,0 2.16,0.01 4.31,0 6.46,0 1.36,0 2.72,0 4.08,0 1.87,0 1.87,0 3.77,0 2.86,0.13 2.86,0.13 3.86,1.13 0.09,2.71 0.12,5.39 0.11,8.1 0,0.85 0,1.7 0,2.57 0,2.82 -0.01,5.64 -0.02,8.46 0,1.95 0,3.9 0,5.85 -0.01,5.14 -0.02,10.28 -0.03,15.42 -0.01,6.16 -0.01,12.33 -0.02,18.49 -0.01,9.37 -0.03,18.74 -0.04,28.11 14.18,0.33 28.37,0.66 43,1 0,8.91 0,17.82 0,27 -24.42,0 -48.85,0 -74,0 -0.72,-3.58 -1.13,-6.22 -1.13,-9.77 0,-0.93 -0.01,-1.86 -0.01,-2.82 0,-1.01 0,-2.02 0.01,-3.06 -0.01,-1.07 -0.01,-2.14 -0.01,-3.25 0,-3.53 0,-7.07 0,-10.61 0,-2.46 0,-4.92 0,-7.37 0,-5.15 0,-10.29 0,-15.44 0.01,-6.61 0.01,-13.22 0,-19.83 0,-5.07 0,-10.14 0,-15.21 0,-2.44 0,-4.87 0,-7.31 0,-3.4 0,-6.8 0.01,-10.2 -0.01,-1.01 -0.01,-2.03 -0.01,-3.08 0,-0.92 0.01,-1.84 0.01,-2.78 0,-0.81 0,-1.61 0,-2.44 0.29,-4.29 4.31,-2.96 7.75,-2.96 z"
     fill="#FCFCFC"
     id="path5"
     style="fill:#3366cc;fill-opacity:1" />
  <path
     d="m 213,635 c 9.9,0 19.8,0 30,0 0,38.28 0,76.56 0,116 -10.23,0 -20.46,0 -31,0 -0.02,-14.98 -0.04,-29.95 -0.05,-44.93 -0.01,-6.95 -0.01,-13.91 -0.03,-20.86 -0.01,-6.71 -0.01,-13.41 -0.01,-20.11 -0.01,-2.57 -0.01,-5.13 -0.02,-7.7 0,-3.57 0,-7.15 0,-10.73 -0.01,-1.07 -0.01,-2.14 -0.01,-3.25 0,-0.97 0,-1.94 0,-2.93 0,-0.85 0,-1.7 0,-2.57 C 212,636 212,636 213,635 Z"
     fill="#F6F6F6"
     id="path6"
     style="fill:#3366cc;fill-opacity:1" />
  <path
     d="m 364.875,498.60156 c 1.15,0 2.3,-0.01 3.48,-0.01 1.21,0.01 2.41,0.02 3.64,0.03 1.21,-0.01 2.41,-0.02 3.65,-0.03 1.72,0 1.72,0 3.48,0.01 1.58,0.01 1.58,0.01 3.2,0.01 2.67,0.39 2.67,0.39 4.52,1.55 1.64,2.62 1.54,4.63 1.55,7.71 0.01,1.73 0.01,1.73 0.02,3.49 -0.02,1.2 -0.03,2.4 -0.04,3.64 0.01,1.2 0.02,2.4 0.04,3.64 -0.01,1.15 -0.01,2.3 -0.02,3.48 0,1.06 0,2.11 -0.01,3.2 -0.39,2.68 -0.39,2.68 -1.53,4.52 -2.69,1.68 -4.83,1.55 -7.98,1.56 -1.8,0 -1.8,0 -3.64,0.01 -1.25,-0.01 -2.51,-0.02 -3.8,-0.04 -1.88,0.02 -1.88,0.02 -3.81,0.04 -1.8,-0.01 -1.8,-0.01 -3.63,-0.01 -1.1,-0.01 -2.2,-0.01 -3.34,-0.01 -0.87,-0.13 -1.75,-0.26 -2.66,-0.39 -3.24,-4.87 -2.32,-10.28 -2.31,-16 -0.01,-1.2 -0.03,-2.4 -0.05,-3.64 0,-1.15 0,-2.3 0,-3.49 0,-1.05 0,-2.11 -0.01,-3.19 0.37,-2.68 0.37,-2.68 1.53,-4.52 2.62,-1.65 4.64,-1.55 7.72,-1.56 z"
     fill="#F0F0F0"
     id="path7"
     style="fill:#3366cc;fill-opacity:1" />
  <path
     d="m 326.91016,498.76953 c 1.73,0 1.73,0 3.5,0.01 1.2,0.01 2.41,0.02 3.65,0.03 1.21,0 2.42,0 3.67,0 8.99,0.05 8.99,0.05 11.27,1.19 1.21,5.72 1.15,11.43 1.12,17.25 0.01,1.35 0.01,1.35 0.02,2.72 0,0.86 -0.01,1.72 -0.01,2.61 0,0.78 0,1.55 0,2.36 -0.13,2.06 -0.13,2.06 -1.13,5.06 -4.46,2.23 -10.6,1.19 -15.5,1.19 -1.26,0.01 -2.52,0.02 -3.82,0.04 -1.21,0 -2.41,0 -3.65,0 -1.66,0.01 -1.66,0.01 -3.36,0.01 -2.67,-0.24 -2.67,-0.24 -4.67,-2.24 -0.46,-4.65 -0.32,-9.33 -0.31,-14 -0.02,-1.31 -0.03,-2.62 -0.05,-3.97 0,-1.25 0,-2.49 0,-3.78 -0.01,-1.15 -0.01,-2.3 -0.01,-3.48 0.12,-0.92 0.24,-1.83 0.37,-2.77 3.47,-2.31 4.82,-2.25 8.91,-2.23 z"
     fill="#EDEDED"
     id="path8"
     style="fill:#3366cc;fill-opacity:1" />
  <path
     d="m 364.875,536.60156 c 1.15,0 2.3,-0.01 3.48,-0.01 1.21,0.01 2.41,0.02 3.64,0.03 1.21,-0.01 2.41,-0.02 3.65,-0.03 1.72,0 1.72,0 3.48,0.01 1.58,0.01 1.58,0.01 3.2,0.01 2.67,0.39 2.67,0.39 4.52,1.55 1.65,2.62 1.53,4.63 1.52,7.71 0,1.15 0,2.3 0,3.49 -0.02,1.2 -0.04,2.4 -0.05,3.64 0,1.2 0,2.4 0.01,3.64 -0.06,8.96 -0.06,8.96 -2.33,12.36 -2.76,0.37 -2.76,0.37 -6.24,0.36 -1.25,0 -2.5,0 -3.79,0 -1.96,-0.02 -1.96,-0.02 -3.97,-0.05 -1.3,0 -2.61,0.01 -3.96,0.01 -9.77,-0.05 -9.77,-0.05 -12.04,-2.32 -0.46,-4.46 -0.32,-8.96 -0.31,-13.44 -0.01,-1.25 -0.03,-2.51 -0.05,-3.8 0,-1.2 0,-2.4 0,-3.63 0,-1.11 0,-2.21 -0.01,-3.34 0.37,-2.79 0.37,-2.79 1.53,-4.65 2.62,-1.62 4.65,-1.53 7.72,-1.54 z"
     fill="#F5F5F5"
     id="path9"
     style="fill:#3366cc;fill-opacity:1" />
  <path
     d="m 333.4375,536.625 c 1.15,-0.02 2.29,-0.05 3.47,-0.07 1.1,-0.01 2.2,-0.01 3.34,-0.02 1.01,0 2.01,-0.01 3.05,-0.02 3.5,0.63 4.65,1.61 6.7,4.49 0.49,2.7 0.49,2.7 0.46,5.75 0,1.1 0,2.2 -0.01,3.34 -0.04,1.71 -0.04,1.71 -0.07,3.47 0,1.15 -0.01,2.3 -0.01,3.48 -0.09,8.53 -0.09,8.53 -2.37,11.96 -2.76,0.37 -2.76,0.37 -6.25,0.36 -1.25,0 -2.49,0 -3.78,0 -1.96,-0.03 -1.96,-0.03 -3.97,-0.05 -1.31,0 -2.62,0 -3.97,0.01 -9.76,-0.06 -9.76,-0.06 -12.03,-2.32 -0.46,-4.65 -0.32,-9.34 -0.31,-14 -0.02,-1.31 -0.03,-2.62 -0.05,-3.97 0,-1.25 0,-2.5 0,-3.79 0,-1.14 -0.01,-2.29 -0.01,-3.48 0.12,-0.91 0.25,-1.82 0.37,-2.76 4.76,-3.18 9.84,-2.37 15.44,-2.38 z"
     fill="#F2F2F2"
     id="path10"
     style="fill:#3366cc;fill-opacity:1" />
</svg>
