<?xml version="1.0" encoding="UTF-8"?>
<svg width="512" height="512" viewBox="0 0 512 512" fill="none" xmlns="http://www.w3.org/2000/svg">
  <rect width="512" height="512" fill="#0A0F1C"/>
  <path d="M256 128C187.307 128 128 187.307 128 256C128 324.693 187.307 384 256 384C324.693 384 384 324.693 384 256C384 187.307 324.693 128 256 128ZM256 352C205.019 352 160 306.981 160 256C160 205.019 205.019 160 256 160C306.981 160 352 205.019 352 256C352 306.981 306.981 352 256 352Z" fill="#4ADE80"/>
  <path d="M256 192C256 174.327 270.327 160 288 160C305.673 160 320 174.327 320 192C320 209.673 305.673 224 288 224C270.327 224 256 209.673 256 192Z" fill="#4ADE80"/>
  <path d="M256 208V304" stroke="#4ADE80" stroke-width="32" stroke-linecap="round"/>
</svg> 